<svg xmlns="http://www.w3.org/2000/svg" width="482" height="206" viewBox="0 0 482 206" version="1.1"><path d="M 124.500 3.930 C 121.750 4.374, 116.575 5.472, 113 6.370 C 109.425 7.268, 102.282 10.074, 97.127 12.606 C 90.194 16.011, 86.159 18.812, 81.627 23.364 C 78.257 26.750, 74.236 32.049, 72.691 35.141 C 71.146 38.233, 69.239 43.179, 68.453 46.131 C 67.667 49.084, 67.018 55.581, 67.012 60.568 C 67.005 65.969, 67.645 71.834, 68.595 75.068 C 69.473 78.056, 71.580 83.124, 73.278 86.331 C 75.094 89.762, 78.830 94.393, 82.351 97.579 C 86.076 100.951, 92.143 104.875, 98.418 107.973 C 103.963 110.711, 115.925 115.488, 125 118.589 C 134.075 121.690, 144.200 125.572, 147.500 127.217 C 150.800 128.861, 154.954 131.590, 156.731 133.281 C 158.508 134.972, 160.465 137.880, 161.080 139.743 C 161.701 141.624, 161.894 144.754, 161.513 146.781 C 161.136 148.789, 159.974 151.632, 158.930 153.099 C 157.885 154.565, 154.887 156.830, 152.266 158.133 C 147.867 160.317, 146.305 160.499, 132 160.489 C 120.678 160.482, 114.209 159.980, 108 158.628 C 103.325 157.610, 93.581 154.803, 86.347 152.389 C 79.112 149.975, 72.464 148, 71.572 148 C 70.680 148, 69.512 149.154, 68.975 150.565 C 68.439 151.976, 68 161.115, 68 170.874 C 68 183.774, 68.352 189.099, 69.289 190.380 C 70.045 191.415, 74.895 193.346, 81.036 195.057 C 86.788 196.661, 97.121 198.947, 103.997 200.139 C 113.550 201.794, 120.746 202.318, 134.500 202.358 C 145.054 202.390, 155.189 201.893, 159 201.157 C 162.575 200.467, 169.100 198.760, 173.500 197.365 C 177.900 195.970, 184.193 193.404, 187.484 191.664 C 190.775 189.924, 196.445 185.697, 200.084 182.271 C 203.900 178.677, 207.995 173.600, 209.761 170.271 C 211.445 167.097, 213.637 161.800, 214.633 158.500 C 215.959 154.102, 216.446 149.162, 216.453 140 C 216.461 130.401, 216.030 126.224, 214.595 122 C 213.567 118.975, 211.831 114.720, 210.738 112.545 C 209.644 110.369, 206.237 105.955, 203.167 102.736 C 200.096 99.516, 194.415 94.908, 190.542 92.495 C 186.669 90.082, 180.854 86.939, 177.621 85.510 C 174.388 84.080, 163.813 80.195, 154.121 76.876 C 144.429 73.556, 134.321 69.657, 131.658 68.211 C 128.995 66.765, 125.958 64.491, 124.908 63.156 C 123.796 61.742, 123 59.156, 123 56.954 C 123 53.973, 123.642 52.638, 126.045 50.615 C 127.720 49.206, 130.983 47.536, 133.295 46.905 C 135.989 46.170, 141.633 45.968, 149 46.342 C 155.325 46.664, 163.650 47.618, 167.500 48.462 C 171.350 49.306, 179.808 51.652, 186.295 53.676 C 197.913 57.300, 198.116 57.327, 199.899 55.428 C 201.085 54.166, 202.797 48.147, 204.858 38 C 206.590 29.475, 208.006 21.288, 208.004 19.807 C 208.001 18.153, 207.132 16.502, 205.750 15.529 C 204.512 14.658, 199.402 12.630, 194.394 11.023 C 189.386 9.415, 180.836 7.143, 175.394 5.974 C 167.984 4.383, 160.981 3.758, 147.500 3.486 C 137.600 3.286, 127.250 3.486, 124.500 3.930 M 18.749 16.375 C 16.137 17.099, 13.004 18.548, 11.787 19.596 C 10.571 20.643, 8.746 22.400, 7.732 23.500 C 6.718 24.600, 5.023 27.300, 3.966 29.500 C 2.854 31.813, 2.035 35.666, 2.022 38.636 C 2.006 42.346, 2.775 45.256, 4.793 49.119 C 6.453 52.296, 9.193 55.591, 11.543 57.239 C 13.720 58.764, 17.975 60.518, 21 61.136 C 25.115 61.977, 27.560 61.969, 30.708 61.103 C 33.022 60.466, 36.847 58.474, 39.208 56.676 C 41.569 54.878, 44.593 51.430, 45.930 49.013 C 47.735 45.750, 48.367 43.063, 48.391 38.560 C 48.412 34.584, 47.795 31.296, 46.597 29 C 45.593 27.075, 43.586 24.221, 42.136 22.658 C 40.686 21.096, 37.914 19.001, 35.977 18.004 C 34.039 17.006, 30.439 15.936, 27.977 15.625 C 25.479 15.309, 21.400 15.641, 18.749 16.375 M 230.250 18.662 C 229.263 19.060, 229 37.761, 229 107.461 C 229 185.593, 229.177 195.902, 230.534 197.028 C 231.764 198.049, 234.091 198.065, 242.284 197.106 C 247.903 196.449, 257.675 194.991, 264 193.867 C 270.325 192.743, 276.056 191.363, 276.735 190.802 C 277.652 190.043, 278.038 182.273, 278.235 160.640 C 278.500 131.500, 278.500 131.500, 302.750 131.232 C 327 130.964, 327 130.964, 327.100 154.732 C 327.155 167.804, 327.522 179.625, 327.916 181 C 328.551 183.214, 329.140 183.484, 333.067 183.359 C 335.505 183.282, 343.575 181.313, 351 178.983 C 358.425 176.654, 367.202 173.533, 370.505 172.048 C 373.807 170.563, 377.295 168.563, 378.255 167.603 C 379.768 166.089, 380 163.752, 380 149.988 C 380 140.345, 380.398 133.872, 381.014 133.492 C 381.571 133.147, 388.434 136.580, 396.264 141.119 C 404.094 145.659, 415.900 151.955, 422.500 155.110 C 429.100 158.266, 440.575 162.933, 448 165.483 C 455.425 168.033, 465.100 170.989, 469.500 172.053 C 473.900 173.116, 478.063 173.989, 478.750 173.993 C 479.438 173.997, 480 173.338, 480 172.528 C 480 171.718, 477.917 166.656, 475.370 161.278 C 472.824 155.900, 467.380 144.525, 463.273 136 C 457.152 123.294, 455.894 119.869, 456.295 117 C 456.565 115.075, 462.008 102.514, 468.392 89.087 C 474.777 75.659, 480 64.072, 480 63.337 C 480 62.602, 478.988 62.001, 477.750 62.003 C 476.512 62.004, 471.450 63.091, 466.500 64.418 C 461.550 65.745, 453.900 68.060, 449.500 69.562 C 445.100 71.064, 437.225 74.161, 432 76.444 C 426.775 78.726, 413.354 86.127, 402.175 92.889 C 390.996 99.651, 381.598 104.931, 381.289 104.623 C 380.981 104.314, 380.677 95.095, 380.614 84.136 C 380.509 65.703, 380.350 64.044, 378.500 61.998 C 377.400 60.782, 374.904 58.972, 372.953 57.977 C 371.002 56.981, 361.671 53.204, 352.217 49.583 C 342.763 45.962, 333.699 43, 332.073 43 C 330.448 43, 328.754 43.563, 328.309 44.250 C 327.864 44.938, 327.275 55.175, 327 67 C 326.500 88.500, 326.500 88.500, 303 88.500 C 279.500 88.500, 279.500 88.500, 279.235 58.892 C 278.997 32.235, 278.798 29.133, 277.235 27.778 C 276.281 26.949, 271.450 25.302, 266.500 24.117 C 261.550 22.931, 252.576 21.070, 246.557 19.981 C 240.539 18.891, 234.689 18.036, 233.557 18.079 C 232.426 18.122, 230.938 18.385, 230.250 18.662 M 4.441 78.419 C 2.563 79.793, 2.500 81.518, 2.500 131.836 C 2.500 160.434, 2.835 184.168, 3.245 184.578 C 3.655 184.988, 7.255 186.142, 11.245 187.142 C 15.235 188.142, 24.265 189.929, 31.311 191.113 C 41.252 192.783, 44.669 193.016, 46.561 192.154 C 49 191.043, 49 191.043, 49 135.057 C 49 80.728, 48.943 79.040, 47.066 78.035 C 45.923 77.424, 37.200 77, 25.757 77 C 10.603 77, 5.959 77.309, 4.441 78.419" stroke="none" fill="#1c1c1c" fill-rule="evenodd"/></svg>