<?xml version="1.0" encoding="UTF-8"?>
<svg xmlns="http://www.w3.org/2000/svg" xmlns:xlink="http://www.w3.org/1999/xlink" width="96px" height="41px" viewBox="0 0 95 41" version="1.1">
<g id="surface1">
<path style=" stroke:none;fill-rule:evenodd;fill:rgb(10.980392%,10.980392%,10.980392%);fill-opacity:1;" d="M 24.539062 0.78125 C 23.996094 0.871094 22.976562 1.089844 22.273438 1.269531 C 21.566406 1.445312 20.160156 2.003906 19.144531 2.507812 C 17.777344 3.1875 16.980469 3.742188 16.089844 4.648438 C 15.425781 5.324219 14.632812 6.378906 14.328125 6.992188 C 14.023438 7.609375 13.648438 8.59375 13.492188 9.179688 C 13.335938 9.769531 13.207031 11.0625 13.207031 12.054688 C 13.207031 13.128906 13.332031 14.296875 13.519531 14.941406 C 13.691406 15.535156 14.109375 16.542969 14.441406 17.183594 C 14.800781 17.867188 15.535156 18.785156 16.230469 19.421875 C 16.964844 20.09375 18.160156 20.875 19.398438 21.488281 C 20.492188 22.035156 22.847656 22.984375 24.636719 23.601562 C 26.425781 24.21875 28.421875 24.992188 29.070312 25.320312 C 29.722656 25.648438 30.539062 26.191406 30.890625 26.527344 C 31.242188 26.863281 31.625 27.441406 31.75 27.8125 C 31.871094 28.1875 31.910156 28.808594 31.832031 29.214844 C 31.757812 29.613281 31.53125 30.179688 31.324219 30.472656 C 31.117188 30.761719 30.527344 31.214844 30.011719 31.472656 C 29.144531 31.90625 28.835938 31.945312 26.015625 31.941406 C 23.785156 31.941406 22.511719 31.839844 21.285156 31.570312 C 20.363281 31.367188 18.445312 30.808594 17.019531 30.328125 C 15.59375 29.847656 14.28125 29.457031 14.105469 29.457031 C 13.929688 29.457031 13.699219 29.6875 13.59375 29.96875 C 13.488281 30.246094 13.402344 32.066406 13.402344 34.007812 C 13.402344 36.578125 13.472656 37.636719 13.65625 37.890625 C 13.804688 38.097656 14.761719 38.480469 15.972656 38.820312 C 17.105469 39.140625 19.140625 39.597656 20.496094 39.832031 C 22.378906 40.164062 23.796875 40.265625 26.507812 40.273438 C 28.589844 40.28125 30.585938 40.183594 31.339844 40.035156 C 32.042969 39.898438 33.328125 39.558594 34.195312 39.28125 C 35.0625 39.003906 36.304688 38.492188 36.953125 38.148438 C 37.601562 37.800781 38.71875 36.960938 39.4375 36.277344 C 40.1875 35.5625 40.996094 34.550781 41.34375 33.890625 C 41.675781 33.257812 42.105469 32.203125 42.304688 31.546875 C 42.566406 30.671875 42.660156 29.6875 42.660156 27.863281 C 42.664062 25.953125 42.578125 25.121094 42.296875 24.28125 C 42.09375 23.679688 41.75 22.832031 41.535156 22.398438 C 41.320312 21.964844 40.648438 21.089844 40.042969 20.449219 C 39.4375 19.804688 38.316406 18.890625 37.554688 18.410156 C 36.792969 17.929688 35.644531 17.304688 35.007812 17.019531 C 34.371094 16.734375 32.285156 15.960938 30.375 15.300781 C 28.464844 14.640625 26.472656 13.863281 25.949219 13.574219 C 25.425781 13.289062 24.824219 12.835938 24.617188 12.570312 C 24.398438 12.289062 24.242188 11.773438 24.242188 11.335938 C 24.242188 10.742188 24.371094 10.476562 24.84375 10.074219 C 25.171875 9.792969 25.816406 9.460938 26.273438 9.335938 C 26.804688 9.1875 27.914062 9.148438 29.367188 9.222656 C 30.613281 9.289062 32.253906 9.476562 33.011719 9.644531 C 33.773438 9.8125 35.4375 10.28125 36.71875 10.683594 C 39.007812 11.40625 39.046875 11.410156 39.398438 11.03125 C 39.632812 10.78125 39.96875 9.582031 40.375 7.5625 C 40.71875 5.867188 40.996094 4.238281 40.996094 3.941406 C 40.996094 3.613281 40.824219 3.285156 40.550781 3.089844 C 40.308594 2.917969 39.300781 2.515625 38.3125 2.195312 C 37.328125 1.875 35.640625 1.421875 34.570312 1.1875 C 33.109375 0.871094 31.730469 0.746094 29.070312 0.695312 C 27.121094 0.652344 25.082031 0.695312 24.539062 0.78125 M 3.695312 3.257812 C 3.179688 3.402344 2.5625 3.691406 2.324219 3.898438 C 2.082031 4.109375 1.722656 4.457031 1.523438 4.675781 C 1.324219 4.894531 0.988281 5.433594 0.78125 5.871094 C 0.5625 6.332031 0.402344 7.097656 0.398438 7.691406 C 0.394531 8.429688 0.546875 9.007812 0.945312 9.777344 C 1.273438 10.410156 1.8125 11.0625 2.273438 11.390625 C 2.703125 11.695312 3.542969 12.042969 4.140625 12.167969 C 4.949219 12.335938 5.433594 12.332031 6.050781 12.160156 C 6.507812 12.035156 7.261719 11.636719 7.726562 11.28125 C 8.191406 10.921875 8.789062 10.234375 9.050781 9.753906 C 9.410156 9.105469 9.53125 8.570312 9.539062 7.675781 C 9.542969 6.882812 9.421875 6.230469 9.183594 5.773438 C 8.984375 5.390625 8.589844 4.820312 8.304688 4.507812 C 8.019531 4.199219 7.472656 3.78125 7.089844 3.582031 C 6.707031 3.382812 6 3.171875 5.515625 3.109375 C 5.023438 3.046875 4.21875 3.113281 3.695312 3.257812 M 45.382812 3.714844 C 45.1875 3.792969 45.136719 7.515625 45.136719 21.386719 C 45.136719 36.9375 45.167969 38.988281 45.4375 39.214844 C 45.679688 39.417969 46.136719 39.421875 47.753906 39.230469 C 48.859375 39.097656 50.785156 38.808594 52.03125 38.585938 C 53.28125 38.363281 54.410156 38.085938 54.542969 37.976562 C 54.722656 37.824219 54.800781 36.277344 54.839844 31.972656 C 54.890625 26.171875 54.890625 26.171875 59.671875 26.117188 C 64.449219 26.066406 64.449219 26.066406 64.46875 30.796875 C 64.480469 33.398438 64.554688 35.75 64.628906 36.023438 C 64.757812 36.464844 64.871094 36.519531 65.644531 36.492188 C 66.125 36.476562 67.71875 36.085938 69.179688 35.621094 C 70.644531 35.160156 72.375 34.539062 73.023438 34.242188 C 73.675781 33.945312 74.363281 33.550781 74.550781 33.359375 C 74.851562 33.054688 74.894531 32.589844 74.894531 29.851562 C 74.894531 27.933594 74.976562 26.644531 75.097656 26.570312 C 75.207031 26.5 76.558594 27.183594 78.101562 28.085938 C 79.644531 28.992188 81.972656 30.242188 83.273438 30.871094 C 84.574219 31.5 86.835938 32.429688 88.296875 32.9375 C 89.761719 33.445312 91.667969 34.03125 92.535156 34.242188 C 93.402344 34.457031 94.222656 34.628906 94.359375 34.628906 C 94.496094 34.628906 94.605469 34.5 94.605469 34.339844 C 94.605469 34.175781 94.195312 33.167969 93.691406 32.097656 C 93.191406 31.027344 92.117188 28.765625 91.308594 27.066406 C 90.101562 24.539062 89.855469 23.859375 89.933594 23.285156 C 89.988281 22.902344 91.058594 20.402344 92.316406 17.730469 C 93.578125 15.058594 94.605469 12.753906 94.605469 12.605469 C 94.605469 12.460938 94.40625 12.339844 94.164062 12.339844 C 93.917969 12.339844 92.921875 12.558594 91.945312 12.820312 C 90.96875 13.085938 89.460938 13.546875 88.59375 13.84375 C 87.726562 14.144531 86.175781 14.761719 85.144531 15.214844 C 84.117188 15.667969 81.46875 17.140625 79.265625 18.488281 C 77.0625 19.832031 75.210938 20.882812 75.148438 20.824219 C 75.089844 20.761719 75.03125 18.925781 75.015625 16.746094 C 74.996094 13.078125 74.964844 12.746094 74.601562 12.339844 C 74.382812 12.097656 73.890625 11.738281 73.507812 11.539062 C 73.121094 11.339844 71.285156 10.589844 69.421875 9.867188 C 67.558594 9.148438 65.769531 8.558594 65.449219 8.558594 C 65.128906 8.558594 64.796875 8.671875 64.707031 8.808594 C 64.621094 8.945312 64.503906 10.980469 64.449219 13.335938 C 64.351562 17.613281 64.351562 17.613281 59.71875 17.613281 C 55.089844 17.613281 55.089844 17.613281 55.035156 11.722656 C 54.988281 6.414062 54.949219 5.796875 54.640625 5.527344 C 54.453125 5.363281 53.5 5.035156 52.527344 4.800781 C 51.550781 4.5625 49.78125 4.195312 48.59375 3.976562 C 47.410156 3.761719 46.257812 3.589844 46.03125 3.597656 C 45.808594 3.605469 45.515625 3.660156 45.382812 3.714844 M 0.875 15.609375 C 0.503906 15.882812 0.492188 16.222656 0.492188 26.238281 C 0.492188 31.929688 0.558594 36.65625 0.640625 36.738281 C 0.71875 36.816406 1.429688 37.046875 2.214844 37.246094 C 3.003906 37.445312 4.78125 37.800781 6.171875 38.035156 C 8.128906 38.371094 8.804688 38.414062 9.175781 38.246094 C 9.65625 38.023438 9.65625 38.023438 9.65625 26.878906 C 9.65625 16.066406 9.644531 15.730469 9.277344 15.53125 C 9.050781 15.410156 7.332031 15.324219 5.078125 15.324219 C 2.089844 15.324219 1.175781 15.386719 0.875 15.609375 "/>
</g>
</svg>
